<svg width="315" height="307" viewBox="0 0 315 307" fill="none" xmlns="http://www.w3.org/2000/svg">
<g filter="url(#filter0_d_226_156)">
<path d="M7.98438 261.219H4V267.617H7.98438V264.699H9.56641V269.891H10.4453V260.223H9.56641V263.938H7.98438V261.219ZM4.86719 266.879V261.957H7.11719V266.879H4.86719ZM11.6523 270.418H12.543V260H11.6523V270.418Z" fill="white"/>
<path d="M19.3281 260.949H14.4414V267.91H15.2617C17.2363 267.904 18.6016 267.846 20.2305 267.57L20.125 266.809C18.5664 267.078 17.248 267.148 15.3672 267.148V264.629H19.0938V263.879H15.3672V261.723H19.3281V260.949ZM21.1328 270.418H22.0469V264.98H23.793V264.195H22.0469V260H21.1328V270.418Z" fill="white"/>
<path d="M33.8477 265.168H29.1602V263.703H28.2344V265.168H24.3672V265.918H33.8477V265.168ZM25.2344 262.391L25.3633 263.188L31.7031 262.889C31.668 263.346 31.6035 263.85 31.4922 264.418L32.4062 264.5C32.6699 263.111 32.6699 262.086 32.6758 261.219V260.422H25.4922V261.172H31.7617V261.219C31.7617 261.523 31.7559 261.84 31.7441 262.186L25.2344 262.391ZM25.5039 268.578C25.498 269.744 26.8398 270.395 29.1016 270.395C31.3398 270.395 32.6758 269.744 32.6875 268.578C32.6758 267.406 31.3398 266.75 29.1016 266.75C26.8398 266.75 25.498 267.406 25.5039 268.578ZM26.4414 268.578C26.4297 267.875 27.4316 267.482 29.1016 267.477C30.7539 267.482 31.7559 267.875 31.7617 268.578C31.7559 269.275 30.7539 269.668 29.1016 269.668C27.4316 269.668 26.4297 269.275 26.4414 268.578Z" fill="white"/>
<path d="M44.2656 268.262H34.7266V269.035H44.2656V268.262ZM35.1953 265.707L35.582 266.445C37.1465 266.123 38.8223 265.08 39.4902 263.633C40.1582 265.074 41.8398 266.094 43.4336 266.398L43.8086 265.672C42.0098 265.373 39.959 263.955 39.9531 262.297V261.816H43.4453V261.055H35.5117V261.816H39.0039V262.297C39.0039 263.955 36.959 265.408 35.1953 265.707Z" fill="white"/>
<path d="M57.0508 260.738H53.3125V259.836H52.3984V260.738H48.6016V261.418H57.0508V260.738ZM48.1094 265.965H57.6016V265.273H53.3125V264.547C55.2109 264.482 56.2305 264.043 56.2305 263.199C56.2305 262.291 55.0469 261.852 52.8555 261.852C50.6465 261.852 49.4688 262.291 49.4688 263.199C49.4688 264.043 50.4824 264.482 52.3984 264.547V265.273H48.1094V265.965ZM49.2578 267.312H55.457V268.098H49.2812V270.301H56.6992V269.621H50.2188V268.742H56.3828V266.645H49.2578V267.312ZM50.4531 263.199C50.4473 262.73 51.2676 262.484 52.8555 262.484C54.4258 262.484 55.2637 262.73 55.2695 263.199C55.2637 263.674 54.4258 263.932 52.8555 263.938C51.2676 263.932 50.4473 263.674 50.4531 263.199Z" fill="white"/>
<path d="M63.7891 260.996H59.0078V267.863H59.8047C61.8027 267.863 63.0742 267.793 64.6094 267.5L64.4922 266.738C63.0508 267.02 61.8145 267.084 59.9336 267.078V261.77H63.7891V260.996ZM63.168 264.559H66.2031V270.441H67.1289V260H66.2031V263.797H63.168V264.559Z" fill="white"/>
<path d="M72.9648 269.539C73.3809 269.533 73.7207 269.193 73.7148 268.777C73.7207 268.367 73.3809 268.027 72.9648 268.027C72.5547 268.027 72.2031 268.367 72.2148 268.777C72.2031 269.193 72.5547 269.533 72.9648 269.539ZM72.2148 264.066C72.2031 264.482 72.5547 264.822 72.9648 264.828C73.3809 264.822 73.7207 264.482 73.7148 264.066C73.7207 263.656 73.3809 263.316 72.9648 263.316C72.5547 263.316 72.2031 263.656 72.2148 264.066Z" fill="white"/>
<path d="M78.0859 267.734H82.1992V269.469H83.207V267.734H84.3906V266.809H83.207V260.984H81.9062L78.0859 266.867V267.734ZM79.2227 266.809V266.738L82.0938 262.32H82.1992V266.809H79.2227Z" fill="white"/>
<path d="M88.7383 269.586C90.5254 269.604 91.6914 268.326 91.6914 266.727C91.6914 265.086 90.4316 263.914 88.9258 263.914C88.0117 263.914 87.2324 264.33 86.7461 265.039H86.6406C86.6348 262.994 87.4727 261.805 88.8672 261.805C89.8105 261.805 90.3848 262.367 90.5781 263.117H91.6211C91.4043 261.787 90.3613 260.867 88.8672 260.867C86.875 260.867 85.6445 262.549 85.6445 265.555C85.6445 268.695 87.2676 269.568 88.7383 269.586ZM86.7812 266.75C86.793 265.748 87.6484 264.846 88.7617 264.84C89.8691 264.846 90.666 265.695 90.6719 266.738C90.666 267.793 89.834 268.654 88.7383 268.66C87.6016 268.654 86.7871 267.746 86.7812 266.75Z" fill="white"/>
<path d="M93.4727 269.539C93.8887 269.533 94.2285 269.193 94.2227 268.777C94.2285 268.367 93.8887 268.027 93.4727 268.027C93.0625 268.027 92.7109 268.367 92.7227 268.777C92.7109 269.193 93.0625 269.533 93.4727 269.539Z" fill="white"/>
<path d="M95.793 269.469H101.301V268.531H97.2578V268.461L99.2031 266.457C100.703 264.91 101.143 264.172 101.148 263.223C101.143 261.904 100.053 260.867 98.5117 260.867C96.9766 260.867 95.8164 261.875 95.8281 263.375H96.8242C96.8301 262.426 97.4629 261.787 98.4766 261.781C99.4316 261.787 100.158 262.35 100.164 263.223C100.158 264.008 99.6777 264.582 98.6758 265.648L95.7812 268.695L95.793 269.469Z" fill="white"/>
<path d="M105.66 260.867C103.855 260.85 102.695 262.133 102.695 263.715C102.695 265.35 103.955 266.516 105.473 266.516C106.375 266.516 107.154 266.094 107.641 265.391H107.758C107.746 267.453 106.902 268.648 105.52 268.648C104.576 268.648 103.996 268.086 103.809 267.324H102.766C102.977 268.672 104.025 269.586 105.52 269.586C107.506 269.586 108.742 267.904 108.742 264.887C108.742 261.764 107.119 260.885 105.66 260.867ZM103.727 263.703C103.715 262.654 104.553 261.793 105.66 261.793C106.779 261.793 107.594 262.707 107.594 263.68C107.594 264.676 106.732 265.59 105.625 265.59C104.518 265.59 103.721 264.752 103.727 263.703Z" fill="white"/>
<path d="M111.988 264.922C113.078 264.928 113.682 264.096 113.688 262.883C113.682 261.688 113.102 260.855 111.988 260.855C110.916 260.855 110.283 261.688 110.289 262.883C110.283 264.096 110.893 264.928 111.988 264.922ZM111.121 269.469H112.07L117.906 260.984H116.957L111.121 269.469ZM111.145 262.883C111.145 262.104 111.432 261.588 111.988 261.582C112.58 261.57 112.832 262.104 112.832 262.883C112.832 263.674 112.562 264.195 111.988 264.195C111.42 264.195 111.145 263.674 111.145 262.883ZM115.469 267.559C115.457 268.766 116.061 269.592 117.168 269.586C118.252 269.592 118.855 268.766 118.855 267.559C118.855 266.352 118.264 265.525 117.168 265.52C116.084 265.525 115.457 266.352 115.469 267.559ZM116.312 267.559C116.318 266.768 116.6 266.252 117.168 266.246C117.754 266.234 118 266.768 118 267.559C118 268.344 117.736 268.865 117.168 268.859C116.594 268.865 116.318 268.344 116.312 267.559Z" fill="white"/>
<path d="M201.719 261.074V259.656H200.84V261.074C200.834 262.234 199.996 263.582 198.625 264.18L199.129 264.895C200.154 264.449 200.904 263.564 201.285 262.574C201.66 263.471 202.381 264.215 203.383 264.602L203.863 263.898C202.527 263.395 201.725 262.229 201.719 261.074ZM200.523 267.543C200.512 268.709 201.848 269.395 204.016 269.395C206.172 269.395 207.514 268.709 207.52 267.543C207.514 266.365 206.172 265.674 204.016 265.68C201.848 265.674 200.512 266.365 200.523 267.543ZM201.438 267.543C201.426 266.822 202.416 266.389 204.016 266.383C205.598 266.389 206.594 266.822 206.605 267.543C206.594 268.252 205.598 268.686 204.016 268.68C202.416 268.686 201.426 268.252 201.438 267.543ZM204.332 265.117H205.199V262.574H206.582V265.445H207.461V259.012H206.582V261.812H205.199V259.211H204.332V265.117Z" fill="white"/>
<path d="M213.531 260.207H209.406V266.84H210.074C211.785 266.846 212.787 266.793 214.012 266.559L213.93 265.797C212.793 266.002 211.832 266.049 210.285 266.055V263.699H213.379V262.961H210.285V260.957H213.531V260.207ZM214.703 268.891H215.594V263.957H217.023V269.418H217.914V259H217.023V263.195H215.594V259.223H214.703V268.891Z" fill="white"/>
<path d="M228.273 259H227.395V269.418H228.273V259ZM219.344 266.5L219.906 267.168C221.875 265.99 223.018 264.432 223.521 262.668H225.285V264.52H223.352V265.281H225.285V268.891H226.164V259.281H225.285V261.906H223.703C223.797 261.396 223.844 260.869 223.844 260.336H219.812V261.098H222.93C222.748 263.277 221.611 265.158 219.344 266.5Z" fill="white"/>
<path d="M236.441 261.801V259.902H235.527V261.801C235.516 263.775 234.232 265.768 232.68 266.477L233.266 267.25C234.484 266.635 235.51 265.316 235.99 263.746C236.488 265.229 237.514 266.465 238.703 267.039L239.266 266.312C237.73 265.615 236.436 263.705 236.441 261.801ZM240.402 269.441H241.328V259H240.402V269.441Z" fill="white"/>
<path d="M248.301 260.535V259.738H247.34V260.535C247.334 262.328 245.312 263.904 243.508 264.25L243.93 265.023C245.506 264.654 247.152 263.541 247.832 262.012C248.506 263.541 250.158 264.66 251.734 265.023L252.156 264.25C250.346 263.91 248.307 262.322 248.301 260.535ZM243.109 268H252.648V267.238H243.109V268Z" fill="white"/>
<path d="M257.945 259.68H253.973V264.637H254.629C256.316 264.631 257.301 264.584 258.508 264.355L258.414 263.617C257.295 263.822 256.363 263.881 254.852 263.887V262.469H257.512V261.742H254.852V260.453H257.945V259.68ZM255.449 269.277H262.328V265.762H255.449V269.277ZM256.352 268.527V266.512H261.426V268.527H256.352ZM258.004 262.387H259.41V265.188H260.301V259.188H259.41V261.625H258.004V262.387ZM261.449 265.281H262.328V259H261.449V265.281Z" fill="white"/>
<path d="M267.965 268.539C268.381 268.533 268.721 268.193 268.715 267.777C268.721 267.367 268.381 267.027 267.965 267.027C267.555 267.027 267.203 267.367 267.215 267.777C267.203 268.193 267.555 268.533 267.965 268.539ZM267.215 263.066C267.203 263.482 267.555 263.822 267.965 263.828C268.381 263.822 268.721 263.482 268.715 263.066C268.721 262.656 268.381 262.316 267.965 262.316C267.555 262.316 267.203 262.656 267.215 263.066Z" fill="white"/>
<path d="M273.297 268.469H278.805V267.531H274.762V267.461L276.707 265.457C278.207 263.91 278.646 263.172 278.652 262.223C278.646 260.904 277.557 259.867 276.016 259.867C274.48 259.867 273.32 260.875 273.332 262.375H274.328C274.334 261.426 274.967 260.787 275.98 260.781C276.936 260.787 277.662 261.35 277.668 262.223C277.662 263.008 277.182 263.582 276.18 264.648L273.285 267.695L273.297 268.469Z" fill="white"/>
<path d="M283.117 268.586C284.998 268.586 286.082 267.004 286.082 264.227C286.082 261.473 284.98 259.867 283.117 259.867C281.248 259.867 280.146 261.473 280.152 264.227C280.146 267.004 281.236 268.586 283.117 268.586ZM281.172 264.227C281.178 262.029 281.898 260.787 283.117 260.781C284.336 260.787 285.057 262.029 285.051 264.227C285.057 266.424 284.342 267.648 283.117 267.648C281.887 267.648 281.178 266.424 281.172 264.227Z" fill="white"/>
<path d="M287.91 268.539C288.326 268.533 288.666 268.193 288.66 267.777C288.666 267.367 288.326 267.027 287.91 267.027C287.5 267.027 287.148 267.367 287.16 267.777C287.148 268.193 287.5 268.533 287.91 268.539Z" fill="white"/>
<path d="M290.324 268.469H291.426L295.305 260.969V259.984H289.727V260.922H294.215V260.98L290.324 268.469Z" fill="white"/>
<path d="M299.676 259.984H298.609L296.5 261.391V262.457L298.562 261.086H298.609V268.469H299.676V259.984Z" fill="white"/>
<path d="M303.73 263.922C304.82 263.928 305.424 263.096 305.43 261.883C305.424 260.688 304.844 259.855 303.73 259.855C302.658 259.855 302.025 260.688 302.031 261.883C302.025 263.096 302.635 263.928 303.73 263.922ZM302.863 268.469H303.812L309.648 259.984H308.699L302.863 268.469ZM302.887 261.883C302.887 261.104 303.174 260.588 303.73 260.582C304.322 260.57 304.574 261.104 304.574 261.883C304.574 262.674 304.305 263.195 303.73 263.195C303.162 263.195 302.887 262.674 302.887 261.883ZM307.211 266.559C307.199 267.766 307.803 268.592 308.91 268.586C309.994 268.592 310.598 267.766 310.598 266.559C310.598 265.352 310.006 264.525 308.91 264.52C307.826 264.525 307.199 265.352 307.211 266.559ZM308.055 266.559C308.061 265.768 308.342 265.252 308.91 265.246C309.496 265.234 309.742 265.768 309.742 266.559C309.742 267.344 309.479 267.865 308.91 267.859C308.336 267.865 308.061 267.344 308.055 266.559Z" fill="white"/>
<path d="M4.12891 297.469H9.12109V296.531H5.18359V288.984H4.12891V297.469Z" fill="white"/>
<path d="M11.582 288.984H10.5273V297.469H11.582V288.984Z" fill="white"/>
<path d="M13.457 297.469H14.5117V294.387H16.3516C18.3262 294.387 19.2344 293.186 19.2344 291.68C19.2344 290.168 18.3262 288.984 16.3398 288.984H13.457V297.469ZM14.5117 293.449V289.922H16.293C17.6582 289.922 18.1855 290.666 18.1914 291.68C18.1855 292.688 17.6582 293.449 16.3047 293.449H14.5117Z" fill="white"/>
<path d="M24.7773 288.984H23.7227V297.469H24.7773V288.984Z" fill="white"/>
<path d="M33.3906 288.984H32.3477V295.605H32.2656L27.6719 288.984H26.6523V297.469H27.707V290.859H27.7891L32.3828 297.469H33.3906V288.984Z" fill="white"/>
<path d="M39.8945 291.117H40.9258C40.8848 289.828 39.7012 288.867 38.0547 288.867C36.4082 288.867 35.1309 289.811 35.1367 291.246C35.1309 292.395 35.9629 293.074 37.293 293.461L38.3359 293.742C39.2266 293.994 40.0117 294.311 40.0117 295.137C40.0117 296.062 39.1328 296.666 37.9609 296.66C36.9531 296.666 36.0684 296.215 35.9805 295.266H34.9023C35.002 296.672 36.1328 297.615 37.9609 297.621C39.9297 297.615 41.043 296.543 41.043 295.16C41.043 293.572 39.5488 293.051 38.6406 292.816L37.7969 292.582C37.1523 292.424 36.1621 292.09 36.1562 291.199C36.1621 290.391 36.8945 289.805 38.0195 289.805C39.0332 289.805 39.8066 290.285 39.8945 291.117Z" fill="white"/>
<path d="M42.5547 297.469H47.7578V296.531H43.6094V293.684H47.4297V292.758H43.6094V289.922H47.6992V288.984H42.5547V297.469Z" fill="white"/>
<path d="M56.1016 288.984H55.0586V295.605H54.9766L50.3828 288.984H49.3633V297.469H50.418V290.859H50.5L55.0938 297.469H56.1016V288.984Z" fill="white"/>
<path d="M57.5078 289.922H60.1797V297.469H61.2461V289.922H63.9062V288.984H57.5078V289.922Z" fill="white"/>
<path d="M66.3672 288.984H65.3125V297.469H66.3672V288.984Z" fill="white"/>
<path d="M68.6289 288.984H67.5156L70.6211 297.469H71.7344L74.8398 288.984H73.7266L71.2188 296.098H71.125L68.6289 288.984Z" fill="white"/>
<path d="M75.9883 297.469H81.1914V296.531H77.043V293.684H80.8633V292.758H77.043V289.922H81.1328V288.984H75.9883V297.469Z" fill="white"/>
<path d="M85.8086 297.469H86.8633V294.387H88.7031C90.6777 294.387 91.5859 293.186 91.5859 291.68C91.5859 290.168 90.6777 288.984 88.6914 288.984H85.8086V297.469ZM86.8633 293.449V289.922H88.6445C90.0098 289.922 90.5371 290.666 90.543 291.68C90.5371 292.688 90.0098 293.449 88.6562 293.449H86.8633Z" fill="white"/>
<path d="M100.234 293.227C100.24 290.543 98.6582 288.867 96.4844 288.867C94.3047 288.867 92.7285 290.543 92.7344 293.227C92.7285 295.91 94.3047 297.586 96.4844 297.586C98.6582 297.586 100.24 295.91 100.234 293.227ZM93.7539 293.227C93.7598 291.035 94.9492 289.852 96.4844 289.852C98.0195 289.852 99.209 291.035 99.2148 293.227C99.209 295.412 98.0195 296.596 96.4844 296.602C94.9492 296.596 93.7598 295.412 93.7539 293.227Z" fill="white"/>
<path d="M108.953 293.227C108.959 290.543 107.377 288.867 105.203 288.867C103.023 288.867 101.447 290.543 101.453 293.227C101.447 295.91 103.023 297.586 105.203 297.586C107.377 297.586 108.959 295.91 108.953 293.227ZM102.473 293.227C102.479 291.035 103.668 289.852 105.203 289.852C106.738 289.852 107.928 291.035 107.934 293.227C107.928 295.412 106.738 296.596 105.203 296.602C103.668 296.596 102.479 295.412 102.473 293.227Z" fill="white"/>
<path d="M110.5 297.469H115.492V296.531H111.555V288.984H110.5V297.469Z" fill="white"/>
<path d="M120.496 296.344C120.912 296.338 121.252 295.998 121.246 295.582C121.252 295.172 120.912 294.832 120.496 294.832C120.086 294.832 119.734 295.172 119.746 295.582C119.734 295.998 120.086 296.338 120.496 296.344ZM119.746 290.871C119.734 291.287 120.086 291.627 120.496 291.633C120.912 291.627 121.252 291.287 121.246 290.871C121.252 290.461 120.912 290.121 120.496 290.121C120.086 290.121 119.734 290.461 119.746 290.871Z" fill="white"/>
<path d="M125.828 297.469H131.336V296.531H127.293V296.461L129.238 294.457C130.738 292.91 131.178 292.172 131.184 291.223C131.178 289.904 130.088 288.867 128.547 288.867C127.012 288.867 125.852 289.875 125.863 291.375H126.859C126.865 290.426 127.498 289.787 128.512 289.781C129.467 289.787 130.193 290.35 130.199 291.223C130.193 292.008 129.713 292.582 128.711 293.648L125.816 296.695L125.828 297.469Z" fill="white"/>
<path d="M135.648 297.586C137.529 297.586 138.613 296.004 138.613 293.227C138.613 290.473 137.512 288.867 135.648 288.867C133.779 288.867 132.678 290.473 132.684 293.227C132.678 296.004 133.768 297.586 135.648 297.586ZM133.703 293.227C133.709 291.029 134.43 289.787 135.648 289.781C136.867 289.787 137.588 291.029 137.582 293.227C137.588 295.424 136.873 296.648 135.648 296.648C134.418 296.648 133.709 295.424 133.703 293.227Z" fill="white"/>
<path d="M142.797 297.586C144.678 297.586 145.762 296.004 145.762 293.227C145.762 290.473 144.66 288.867 142.797 288.867C140.928 288.867 139.826 290.473 139.832 293.227C139.826 296.004 140.916 297.586 142.797 297.586ZM140.852 293.227C140.857 291.029 141.578 289.787 142.797 289.781C144.016 289.787 144.736 291.029 144.73 293.227C144.736 295.424 144.021 296.648 142.797 296.648C141.566 296.648 140.857 295.424 140.852 293.227Z" fill="white"/>
<path d="M148.961 292.922C150.051 292.928 150.654 292.096 150.66 290.883C150.654 289.688 150.074 288.855 148.961 288.855C147.889 288.855 147.256 289.688 147.262 290.883C147.256 292.096 147.865 292.928 148.961 292.922ZM148.094 297.469H149.043L154.879 288.984H153.93L148.094 297.469ZM148.117 290.883C148.117 290.104 148.404 289.588 148.961 289.582C149.553 289.57 149.805 290.104 149.805 290.883C149.805 291.674 149.535 292.195 148.961 292.195C148.393 292.195 148.117 291.674 148.117 290.883ZM152.441 295.559C152.43 296.766 153.033 297.592 154.141 297.586C155.225 297.592 155.828 296.766 155.828 295.559C155.828 294.352 155.236 293.525 154.141 293.52C153.057 293.525 152.43 294.352 152.441 295.559ZM153.285 295.559C153.291 294.768 153.572 294.252 154.141 294.246C154.727 294.234 154.973 294.768 154.973 295.559C154.973 296.344 154.709 296.865 154.141 296.859C153.566 296.865 153.291 296.344 153.285 295.559Z" fill="white"/>
<path d="M204.215 288.645H199.223V293.578H200.066C202.369 293.584 203.646 293.549 205.164 293.285L205.07 292.535C203.605 292.787 202.363 292.834 200.148 292.828V291.445H203.922V290.707H200.148V289.406H204.215V288.645ZM200.441 298.277H207.215V294.738H200.441V298.277ZM201.344 297.527V295.477H206.312V297.527H201.344ZM206.301 294.223H207.215V288.012H206.301V294.223Z" fill="white"/>
<path d="M211.773 297.586C212.553 297.586 213.426 297.311 213.977 296.754L214.574 297.469H215.781L214.604 296.039C214.932 295.617 215.283 294.92 215.289 293.742H214.316C214.316 294.322 214.182 294.832 213.965 295.26L212.137 293.039L212.758 292.57C213.449 292.055 213.883 291.492 213.883 290.684C213.883 289.729 213.098 288.902 211.82 288.902C210.566 288.902 209.758 289.688 209.758 290.836C209.758 291.586 210.162 292.172 210.742 292.869C209.752 293.555 209.066 294.188 209.066 295.219C209.066 296.59 210.104 297.586 211.773 297.586ZM210.098 295.219C210.098 294.973 210.309 294.387 211.07 293.836L211.363 293.613L213.373 296.033C212.91 296.461 212.33 296.695 211.75 296.695C210.748 296.695 210.098 296.004 210.098 295.219ZM210.766 290.848C210.766 290.326 211.217 289.77 211.855 289.77C212.459 289.77 212.869 290.262 212.875 290.684C212.869 291.252 212.559 291.568 212.09 291.879L211.527 292.295C211.111 291.791 210.766 291.316 210.766 290.848Z" fill="white"/>
<path d="M225.824 294.316H216.285V295.078H220.586V298.418H221.488V295.078H225.824V294.316ZM217.562 293.238H224.746V292.488H218.477V291.199H224.383V290.461H218.477V289.242H224.629V288.492H217.562V293.238Z" fill="white"/>
<path d="M230.195 291.199V289.84H232.539V289.078H226.867V289.84H229.293V291.199C229.281 292.975 227.992 294.955 226.492 295.688L227.055 296.414C228.221 295.816 229.264 294.469 229.744 292.939C230.213 294.352 231.203 295.582 232.375 296.156L232.902 295.43C231.391 294.709 230.184 292.869 230.195 291.199ZM233.816 298.418H234.73V293.004H236.477V292.219H234.73V288H233.816V298.418Z" fill="white"/>
<path d="M240.566 291.199V289.84H242.91V289.078H237.238V289.84H239.664V291.199C239.652 292.975 238.363 294.955 236.863 295.688L237.426 296.414C238.592 295.816 239.635 294.469 240.115 292.939C240.584 294.352 241.574 295.582 242.746 296.156L243.273 295.43C241.762 294.709 240.555 292.869 240.566 291.199ZM244.188 298.418H245.102V293.004H246.848V292.219H245.102V288H244.188V298.418Z" fill="white"/>
<path d="M251.523 297.539C251.939 297.533 252.279 297.193 252.273 296.777C252.279 296.367 251.939 296.027 251.523 296.027C251.113 296.027 250.762 296.367 250.773 296.777C250.762 297.193 251.113 297.533 251.523 297.539ZM250.773 292.066C250.762 292.482 251.113 292.822 251.523 292.828C251.939 292.822 252.279 292.482 252.273 292.066C252.279 291.656 251.939 291.316 251.523 291.316C251.113 291.316 250.762 291.656 250.773 292.066Z" fill="white"/>
<path d="M259.855 288.984H258.789L256.68 290.391V291.457L258.742 290.086H258.789V297.469H259.855V288.984Z" fill="white"/>
<path d="M265.047 297.586C266.74 297.586 268.006 296.555 268 295.16C268.006 294.082 267.338 293.291 266.23 293.121V293.062C267.121 292.811 267.684 292.107 267.672 291.141C267.684 289.928 266.699 288.867 265.082 288.867C263.576 288.867 262.322 289.77 262.27 291.117H263.289C263.336 290.285 264.162 289.787 265.07 289.781C266.037 289.787 266.658 290.35 266.652 291.199C266.658 292.072 265.938 292.652 264.906 292.652H264.215V293.578H264.906C266.225 293.584 266.963 294.234 266.969 295.16C266.963 296.045 266.154 296.648 265.035 296.648C264.021 296.648 263.219 296.145 263.16 295.336H262.094C262.146 296.684 263.359 297.586 265.047 297.586Z" fill="white"/>
<path d="M271.316 292.922C272.406 292.928 273.01 292.096 273.016 290.883C273.01 289.688 272.43 288.855 271.316 288.855C270.244 288.855 269.611 289.688 269.617 290.883C269.611 292.096 270.221 292.928 271.316 292.922ZM270.449 297.469H271.398L277.234 288.984H276.285L270.449 297.469ZM270.473 290.883C270.473 290.104 270.76 289.588 271.316 289.582C271.908 289.57 272.16 290.104 272.16 290.883C272.16 291.674 271.891 292.195 271.316 292.195C270.748 292.195 270.473 291.674 270.473 290.883ZM274.797 295.559C274.785 296.766 275.389 297.592 276.496 297.586C277.58 297.592 278.184 296.766 278.184 295.559C278.184 294.352 277.592 293.525 276.496 293.52C275.412 293.525 274.785 294.352 274.797 295.559ZM275.641 295.559C275.646 294.768 275.928 294.252 276.496 294.246C277.082 294.234 277.328 294.768 277.328 295.559C277.328 296.344 277.064 296.865 276.496 296.859C275.922 296.865 275.646 296.344 275.641 295.559Z" fill="white"/>
<path d="M204.191 210.838C148.851 236.305 83.2762 212.271 57.5501 157.004C31.7599 101.596 55.7857 35.7803 111.213 10L138.703 69.0586C129.342 73.4136 122.156 80.5447 117.676 89.0182C111.245 101.174 110.38 116.094 116.631 129.524C117.45 131.282 118.366 132.962 119.372 134.563C131.392 153.713 156.081 161.373 177.12 151.587C160.804 159.176 153.732 178.55 161.324 194.856C168.85 211.025 187.965 218.112 204.191 210.838Z" fill="#95CD9A"/>
<path d="M257.86 63.9819C283.518 119.237 259.74 184.845 204.756 210.755C204.618 210.821 204.478 210.888 204.34 210.952C204.203 211.016 204.063 211.082 203.923 211.144C187.739 218.419 168.678 211.331 161.17 195.166C153.6 178.863 160.654 159.494 176.923 151.907C199.661 141.305 209.516 114.238 198.938 91.4555C188.358 68.6709 161.347 58.7955 138.611 69.3949L111.191 10.3523C166.471 -15.4221 232.138 8.58901 257.86 63.9819Z" fill="url(#paint0_linear_226_156)"/>
<path fill-rule="evenodd" clip-rule="evenodd" d="M61.355 57L117.191 88.7095L117.028 89L61.1914 57.2905L61.355 57Z" fill="white"/>
<path fill-rule="evenodd" clip-rule="evenodd" d="M64.1914 169.711L119.011 134L119.191 134.289L64.3723 170L64.1914 169.711Z" fill="white"/>
<path d="M140.827 122.637H136.639V121.585H140.6V121.082H136.639V120.084H140.749V119.574H136.013V123.14H138.056V124.602H135.191V125.112H141.563V124.602H138.667V123.14H140.827V122.637Z" fill="white"/>
<path d="M147.653 119.377H142.925V119.888H147.042V119.966C147.042 120.218 147.046 120.485 147.034 120.772L142.761 120.901L142.839 121.428L147.007 121.235C146.98 121.597 146.929 121.993 146.839 122.441H142.119V122.952H148.482V122.441H147.461C147.653 121.388 147.653 120.638 147.653 119.966V119.377ZM142.925 125.835H147.801V125.316H143.543V123.651H142.925V125.835Z" fill="white"/>
<path d="M157.421 122.7H151.05V123.203H153.977V124.57H154.588V123.203H157.421V122.7ZM151.864 125.835H156.709V125.316H152.474V123.926H151.864V125.835ZM151.903 122.017H156.568V119.228H155.958V120.123H152.514V119.228H151.903V122.017ZM152.514 121.514V120.595H155.958V121.514H152.514Z" fill="white"/>
<path d="M158.83 119.668H158.243V124.24H160.912V119.668H160.341V121.373H158.83V119.668ZM158.83 123.73V121.875H160.341V123.73H158.83ZM161.797 125.631H162.384V122.284H163.355V125.984H163.949V119H163.355V121.773H162.384V119.149H161.797V125.631Z" fill="white"/>
<path d="M172.661 119H172.043V126H172.661V119ZM167.331 124.311H170.618V119.597H170.016V121.443H167.941V119.597H167.331V124.311ZM167.941 123.792V121.938H170.016V123.792H167.941Z" fill="white"/>
<path d="M177.021 119.086C175.468 119.086 174.556 119.519 174.556 120.296C174.556 121.082 175.468 121.51 177.021 121.514C178.567 121.51 179.475 121.082 179.479 120.296C179.475 119.519 178.567 119.086 177.021 119.086ZM173.851 122.441H175.581V123.132H174.618V123.604H178.775V124.24H174.634V125.906H179.589V125.419H175.244V124.696H179.377V123.132H178.422V122.441H180.191V121.938H173.851V122.441ZM175.197 120.296C175.19 119.837 175.867 119.566 177.021 119.558C178.176 119.566 178.849 119.837 178.853 120.296C178.849 120.776 178.176 121.035 177.021 121.043C175.867 121.035 175.19 120.776 175.197 120.296ZM176.184 123.132V122.441H177.812V123.132H176.184Z" fill="white"/>
<path d="M157.691 98.7778C155.753 98.7778 154.186 98.4829 152.988 97.8931C151.79 97.3032 151.191 96.6352 151.191 95.8889C151.191 95.1306 151.79 94.4595 152.988 93.8757C154.186 93.2919 155.753 93 157.691 93C159.629 93 161.197 93.2919 162.395 93.8757C163.593 94.4595 164.191 95.1306 164.191 95.8889C164.191 96.6352 163.593 97.3032 162.395 97.8931C161.197 98.4829 159.629 98.7778 157.691 98.7778ZM157.691 102.389C155.934 102.389 154.411 102.124 153.123 101.594C151.835 101.065 151.191 100.427 151.191 99.6806V97.875C151.191 98.3444 151.417 98.7507 151.868 99.0938C152.32 99.4368 152.88 99.7197 153.548 99.9424C154.216 100.165 154.926 100.328 155.678 100.43C156.431 100.532 157.102 100.583 157.691 100.583C158.293 100.583 158.967 100.532 159.714 100.43C160.46 100.328 161.167 100.168 161.835 99.9514C162.503 99.7347 163.063 99.4549 163.514 99.1118C163.966 98.7687 164.191 98.3565 164.191 97.875V99.6806C164.191 100.427 163.547 101.065 162.259 101.594C160.971 102.124 159.449 102.389 157.691 102.389ZM157.691 106C155.934 106 154.411 105.735 153.123 105.206C151.835 104.676 151.191 104.038 151.191 103.292V101.486C151.191 101.956 151.417 102.362 151.868 102.705C152.32 103.048 152.88 103.331 153.548 103.553C154.216 103.776 154.926 103.939 155.678 104.041C156.431 104.143 157.102 104.194 157.691 104.194C158.293 104.194 158.967 104.143 159.714 104.041C160.46 103.939 161.167 103.779 161.835 103.562C162.503 103.346 163.063 103.066 163.514 102.723C163.966 102.38 164.191 101.968 164.191 101.486V103.292C164.191 104.038 163.547 104.676 162.259 105.206C160.971 105.735 159.449 106 157.691 106Z" fill="white"/>
<path d="M213.289 91.0011H210.191V95.91H213.289V93.7322H214.357V97.596H215.167V90.2634H214.357V93.0472H213.289V91.0011ZM210.992 95.2426V91.6597H212.497V95.2426H210.992ZM215.977 97.9824H216.787V90.1142H215.977V97.9824Z" fill="white"/>
<path d="M221.895 90.8079H218.139V96.1207H218.78C220.253 96.1164 221.312 96.0768 222.545 95.8749L222.465 95.1987C221.312 95.3875 220.325 95.4358 218.994 95.4446V93.6795H221.735V93.0121H218.994V91.4929H221.895V90.8079ZM223.168 97.9824H224.014V93.9166H225.295V93.2141H224.014V90.1142H223.168V97.9824Z" fill="white"/>
<path d="M232.941 93.9605H229.416V92.933H228.562V93.9605H225.687V94.6367H232.941V93.9605ZM226.328 91.8793L226.444 92.5818L231.188 92.3666C231.161 92.6872 231.112 93.0428 231.036 93.4336L231.882 93.4951C232.073 92.4632 232.073 91.6817 232.078 91.0187V90.404H226.533V91.0714H231.232C231.232 91.2865 231.232 91.506 231.223 91.7475L226.328 91.8793ZM226.541 96.5862C226.541 97.4687 227.574 97.9693 229.31 97.9649C231.032 97.9693 232.055 97.4687 232.06 96.5862C232.055 95.6905 231.032 95.1899 229.31 95.1899C227.574 95.1899 226.541 95.6905 226.541 96.5862ZM227.396 96.5862C227.391 96.1032 228.09 95.8441 229.31 95.8397C230.511 95.8441 231.214 96.1032 231.214 96.5862C231.214 97.0648 230.511 97.315 229.31 97.315C228.09 97.315 227.391 97.0648 227.396 96.5862Z" fill="white"/>
<path d="M240.853 96.2788H233.555V96.9638H240.853V96.2788ZM233.893 94.3117L234.24 94.9791C235.504 94.7377 236.684 93.978 237.195 92.933C237.716 93.9693 238.904 94.7069 240.195 94.944L240.533 94.2854C239.015 94.0483 237.631 92.9857 237.631 91.7827V91.5368H240.221V90.8606H234.16V91.5368H236.75V91.7827C236.75 92.9857 235.375 94.0746 233.893 94.3117Z" fill="white"/>
<path d="M250.519 90.6323H247.716V90H246.87V90.6323H244.031V91.2382H250.519V90.6323ZM243.657 94.6279H250.929V94.022H247.716V93.5302C249.149 93.4775 249.91 93.1526 249.905 92.5291C249.91 91.8441 248.997 91.5236 247.288 91.5192C245.571 91.5236 244.667 91.8441 244.672 92.5291C244.667 93.157 245.424 93.4775 246.87 93.5302V94.022H243.657V94.6279ZM244.529 95.6729H249.149V96.1734H244.538V97.9034H250.234V97.2975H245.393V96.7442H250.012V95.0845H244.529V95.6729ZM245.571 92.5291C245.566 92.2261 246.118 92.0724 247.288 92.0724C248.45 92.0724 249.015 92.2261 249.024 92.5291C249.015 92.8364 248.45 92.9945 247.288 92.9945C246.118 92.9945 245.566 92.8364 245.571 92.5291Z" fill="white"/>
<path d="M255.584 90.843H251.926V96.0681H252.557C254.062 96.0681 255.032 96.0198 256.18 95.8046L256.082 95.1196C255.032 95.3172 254.119 95.3655 252.78 95.3743V91.5368H255.584V90.843ZM255.13 93.618H257.346V98H258.191V90.1142H257.346V92.9243H255.13V93.618Z" fill="white"/>
<path d="M214.191 112.931H218.637V114.801H219.951V112.931H221.201V111.698H219.951V105.199H218.233L214.191 111.751V112.931ZM215.656 111.698V111.618L218.536 106.936H218.637V111.698H215.656Z" fill="white"/>
<path d="M225.912 114.934C227.876 114.947 229.183 113.521 229.183 111.658C229.183 109.821 227.869 108.508 226.24 108.501C225.249 108.508 224.39 108.985 223.891 109.801H223.79C223.79 107.633 224.611 106.346 226.026 106.34C226.948 106.346 227.535 106.91 227.718 107.692H229.095C228.88 106.167 227.712 105.066 226.026 105.066C223.834 105.066 222.458 106.976 222.451 110.318C222.451 113.866 224.219 114.92 225.912 114.934ZM223.954 111.698C223.967 110.63 224.819 109.688 225.937 109.695C227.036 109.688 227.832 110.584 227.832 111.684C227.832 112.805 227.004 113.707 225.899 113.714C224.775 113.707 223.961 112.765 223.954 111.698Z" fill="white"/>
<path d="M231.141 114.894C231.627 114.887 232.031 114.469 232.037 113.952C232.031 113.435 231.627 113.011 231.141 113.011C230.648 113.011 230.238 113.435 230.244 113.952C230.238 114.469 230.648 114.887 231.141 114.894Z" fill="white"/>
<path d="M233.654 114.801H239.805V113.554H235.586V113.475L237.443 111.499C239.161 109.728 239.64 108.873 239.653 107.798C239.64 106.24 238.422 105.066 236.66 105.066C234.917 105.066 233.641 106.227 233.654 107.984H234.967C234.974 106.963 235.618 106.287 236.635 106.287C237.594 106.287 238.327 106.89 238.327 107.838C238.327 108.68 237.828 109.29 236.824 110.385L233.654 113.74V114.801Z" fill="white"/>
<path d="M244.49 105.066C242.501 105.053 241.207 106.485 241.207 108.316C241.207 110.153 242.52 111.472 244.162 111.472C245.147 111.472 246.006 110.981 246.498 110.172H246.612C246.599 112.367 245.772 113.654 244.364 113.66C243.442 113.654 242.848 113.09 242.659 112.281H241.282C241.503 113.84 242.678 114.934 244.364 114.934C246.555 114.934 247.938 113.024 247.938 109.655C247.932 106.141 246.17 105.08 244.49 105.066ZM242.558 108.289C242.552 107.188 243.385 106.287 244.49 106.287C245.608 106.287 246.423 107.235 246.423 108.276C246.423 109.337 245.57 110.285 244.465 110.279C243.354 110.285 242.564 109.403 242.558 108.289Z" fill="white"/>
<path d="M251.5 109.761C252.731 109.775 253.413 108.806 253.42 107.374C253.413 105.968 252.757 104.993 251.5 105C250.281 104.993 249.567 105.968 249.58 107.374C249.567 108.8 250.25 109.775 251.5 109.761ZM250.616 114.801H251.765L258.042 105.199H256.893L250.616 114.801ZM250.616 107.374C250.622 106.519 250.913 105.942 251.5 105.928C252.112 105.922 252.371 106.512 252.371 107.374C252.371 108.256 252.093 108.826 251.5 108.833C250.913 108.826 250.622 108.256 250.616 107.374ZM255.352 112.613C255.346 114.025 256.028 115 257.272 115C258.503 115 259.185 114.032 259.191 112.613C259.185 111.194 258.522 110.219 257.272 110.225C256.053 110.219 255.346 111.194 255.352 112.613ZM256.388 112.613C256.394 111.744 256.691 111.167 257.272 111.154C257.884 111.154 258.143 111.737 258.143 112.613C258.143 113.481 257.865 114.058 257.272 114.058C256.684 114.058 256.394 113.481 256.388 112.613Z" fill="white"/>
<path d="M106.191 191.821H112.145V190.699H108.062V190.627L109.859 188.849C111.522 187.255 111.986 186.485 111.998 185.519C111.986 184.116 110.806 183.06 109.101 183.06C107.414 183.06 106.179 184.104 106.191 185.686H107.463C107.469 184.767 108.092 184.158 109.077 184.158C110.006 184.158 110.715 184.701 110.715 185.554C110.715 186.312 110.232 186.861 109.26 187.846L106.191 190.866V191.821Z" fill="white"/>
<path d="M116.717 191.94C118.765 191.94 119.963 190.329 119.969 187.5C119.963 184.689 118.746 183.06 116.717 183.06C114.682 183.06 113.465 184.689 113.465 187.5C113.465 190.329 114.669 191.94 116.717 191.94ZM114.81 187.5C114.81 185.351 115.525 184.176 116.717 184.17C117.903 184.176 118.624 185.351 118.624 187.5C118.624 189.655 117.909 190.806 116.717 190.806C115.519 190.806 114.804 189.655 114.81 187.5Z" fill="white"/>
<path d="M121.901 191.905C122.371 191.899 122.762 191.523 122.768 191.057C122.762 190.592 122.371 190.21 121.901 190.21C121.424 190.21 121.026 190.592 121.033 191.057C121.026 191.523 121.424 191.899 121.901 191.905Z" fill="white"/>
<path d="M124.407 191.821H125.812L129.749 184.349V183.179H123.795V184.301H128.355V184.373L124.407 191.821Z" fill="white"/>
<path d="M134.468 183.179H133.147L130.947 184.588V185.841L133.062 184.492H133.111V191.821H134.468V183.179Z" fill="white"/>
<path d="M138.746 187.285C139.938 187.297 140.599 186.426 140.605 185.137C140.599 183.871 139.963 182.994 138.746 183C137.567 182.994 136.876 183.871 136.888 185.137C136.876 186.42 137.536 187.297 138.746 187.285ZM137.891 191.821H139.003L145.079 183.179H143.966L137.891 191.821ZM137.891 185.137C137.897 184.367 138.178 183.848 138.746 183.836C139.339 183.83 139.59 184.361 139.59 185.137C139.59 185.93 139.321 186.444 138.746 186.45C138.178 186.444 137.897 185.93 137.891 185.137ZM142.475 189.851C142.469 191.123 143.129 192 144.333 192C145.525 192 146.185 191.129 146.191 189.851C146.185 188.574 145.543 187.697 144.333 187.703C143.154 187.697 142.469 188.574 142.475 189.851ZM143.477 189.851C143.484 189.07 143.771 188.55 144.333 188.538C144.926 188.538 145.177 189.064 145.177 189.851C145.177 190.633 144.908 191.153 144.333 191.153C143.765 191.153 143.484 190.633 143.477 189.851Z" fill="white"/>
<path d="M68.1915 131.821H74.2307V130.699H70.0888V130.627L71.9117 128.849C73.5982 127.255 74.0695 126.485 74.0819 125.519C74.0695 124.116 72.8728 123.06 71.1429 123.06C69.4316 123.06 68.1791 124.104 68.1915 125.686H69.4812C69.4874 124.767 70.1198 124.158 71.1181 124.158C72.0605 124.158 72.7798 124.701 72.7798 125.554C72.7798 126.312 72.2899 126.861 71.3041 127.846L68.1915 130.866V131.821Z" fill="white"/>
<path d="M78.8685 131.94C80.9457 131.94 82.1609 130.329 82.1671 127.5C82.1609 124.689 80.9271 123.06 78.8685 123.06C76.8038 123.06 75.5699 124.689 75.5699 127.5C75.5699 130.329 76.7914 131.94 78.8685 131.94ZM76.934 127.5C76.934 125.351 77.6595 124.176 78.8685 124.17C80.0714 124.176 80.8031 125.351 80.8031 127.5C80.8031 129.655 80.0776 130.806 78.8685 130.806C77.6533 130.806 76.9278 129.655 76.934 127.5Z" fill="white"/>
<path d="M85.6394 127.285C86.8484 127.297 87.5181 126.426 87.5243 125.137C87.5181 123.871 86.8732 122.994 85.6394 123C84.4427 122.994 83.742 123.871 83.7544 125.137C83.742 126.42 84.4117 127.297 85.6394 127.285ZM84.7713 131.821H85.8998L92.0629 123.179H90.9345L84.7713 131.821ZM84.7713 125.137C84.7775 124.367 85.0627 123.848 85.6394 123.836C86.2408 123.83 86.495 124.361 86.495 125.137C86.495 125.93 86.2222 126.444 85.6394 126.45C85.0627 126.444 84.7775 125.93 84.7713 125.137ZM89.4216 129.851C89.4154 131.123 90.085 132 91.3065 132C92.5156 132 93.1852 131.129 93.1914 129.851C93.1852 128.574 92.5342 127.697 91.3065 127.703C90.1098 127.697 89.4154 128.574 89.4216 129.851ZM90.4384 129.851C90.4446 129.07 90.7361 128.55 91.3065 128.538C91.9079 128.538 92.1621 129.064 92.1621 129.851C92.1621 130.633 91.8893 131.153 91.3065 131.153C90.7299 131.153 90.4446 130.633 90.4384 129.851Z" fill="white"/>
<path d="M92.8563 57.1791H91.482L89.1914 58.5876V59.8409L91.3929 58.4921H91.4438V65.821H92.8563V57.1791Z" fill="white"/>
<path d="M98.4682 65.9403C100.377 65.9403 101.796 64.884 101.789 63.4456C101.796 62.3535 101.064 61.5597 99.8043 61.3926V61.3329C100.797 61.1001 101.446 60.3959 101.433 59.4112C101.446 58.134 100.307 57.0597 98.4936 57.0597C96.7757 57.0597 95.3886 58.0146 95.3505 59.4231H96.6994C96.7312 58.6413 97.5583 58.1579 98.4809 58.1579C99.4544 58.1579 100.084 58.695 100.084 59.4828C100.084 60.3124 99.3526 60.8614 98.3028 60.8555H97.5138V61.9297H98.3028C99.6198 61.9357 100.377 62.5444 100.377 63.3979C100.377 64.2394 99.5689 64.8064 98.4555 64.8064C97.4247 64.8064 96.623 64.3229 96.5721 63.565H95.1469C95.2041 64.9794 96.5594 65.9403 98.4682 65.9403Z" fill="white"/>
<path d="M105.442 61.2852C106.682 61.2971 107.37 60.4257 107.376 59.1366C107.37 57.8714 106.708 56.9941 105.442 57C104.214 56.9941 103.495 57.8714 103.507 59.1366C103.495 60.4198 104.182 61.2971 105.442 61.2852ZM104.551 65.821H105.709L112.033 57.1791H110.875L104.551 65.821ZM104.551 59.1366C104.557 58.3667 104.85 57.8475 105.442 57.8356C106.059 57.8296 106.32 58.3608 106.32 59.1366C106.32 59.9304 106.04 60.4437 105.442 60.4496C104.85 60.4437 104.557 59.9304 104.551 59.1366ZM109.323 63.8515C109.317 65.1227 110.004 66 111.257 66C112.498 66 113.185 65.1286 113.191 63.8515C113.185 62.5743 112.517 61.697 111.257 61.7029C110.029 61.697 109.317 62.5743 109.323 63.8515ZM110.366 63.8515C110.373 63.0696 110.672 62.5504 111.257 62.5385C111.874 62.5385 112.135 63.0637 112.135 63.8515C112.135 64.6333 111.855 65.1525 111.257 65.1525C110.665 65.1525 110.373 64.6333 110.366 63.8515Z" fill="white"/>
<path d="M101.745 168.724V167.561H100.9V168.724C100.9 169.721 100.303 170.864 99.1914 171.39L99.6691 172.131C100.468 171.756 101.029 171.034 101.332 170.202C101.626 170.939 102.163 171.55 102.93 171.871L103.389 171.139C102.319 170.698 101.745 169.706 101.745 168.724ZM100.707 174.336C100.698 175.359 101.768 175.965 103.491 175.96C105.208 175.965 106.288 175.359 106.292 174.336C106.288 173.314 105.208 172.708 103.491 172.703C101.768 172.708 100.698 173.314 100.707 174.336ZM101.571 174.336C101.561 173.76 102.292 173.429 103.491 173.434C104.685 173.429 105.415 173.76 105.42 174.336C105.415 174.908 104.685 175.238 103.491 175.228C102.292 175.238 101.561 174.908 101.571 174.336ZM103.647 172.252H104.455V170.127H105.42V172.532H106.246V167.01H105.42V169.345H104.455V167.17H103.647V172.252Z" fill="white"/>
<path d="M110.968 168.002H107.67V173.815H108.221C109.535 173.815 110.334 173.775 111.299 173.585L111.225 172.803C110.357 172.963 109.622 173.003 108.506 173.013V171.119H110.83V170.367H108.506V168.764H110.968V168.002ZM111.776 175.539H112.612V171.34H113.604V175.98H114.44V167H113.604V170.568H112.612V167.17H111.776V175.539Z" fill="white"/>
<path d="M122.561 167H121.734V175.98H122.561V167ZM115.442 173.384L115.956 174.066C117.509 173.058 118.386 171.746 118.785 170.237H120.053V171.7H118.648V172.482H120.053V175.539H120.88V167.231H120.053V169.455H118.946C119.01 169.019 119.043 168.573 119.043 168.112H115.846V168.894H118.179C118.028 170.743 117.192 172.252 115.442 173.384Z" fill="white"/>
<path d="M128.936 169.285V167.752H128.054V169.285C128.054 170.999 127.145 172.718 125.849 173.344L126.382 174.146C127.37 173.62 128.128 172.537 128.509 171.219C128.895 172.447 129.643 173.454 130.59 173.945L131.113 173.194C129.836 172.577 128.927 170.924 128.936 169.285ZM131.857 176H132.73V167H131.857V176Z" fill="white"/>
<path d="M138.223 168.273V167.591H137.305V168.273C137.3 169.736 135.881 171.109 134.319 171.43L134.705 172.222C136.023 171.901 137.231 170.964 137.773 169.706C138.306 170.969 139.514 171.911 140.832 172.222L141.236 171.43C139.652 171.119 138.223 169.736 138.223 168.273ZM134.044 174.797H141.576V174.006H134.044V174.797Z" fill="white"/>
<path d="M145.673 167.571H142.541V171.901H143.073C144.373 171.901 145.159 171.866 146.105 171.67L146.022 170.919C145.177 171.084 144.465 171.129 143.377 171.139V170.067H145.352V169.325H143.377V168.353H145.673V167.571ZM143.689 175.87H149.191V172.793H143.689V175.87ZM144.562 175.098V173.545H148.337V175.098H144.562ZM145.728 169.997H146.748V172.322H147.575V167.15H146.748V169.225H145.728V169.997ZM148.365 172.392H149.191V167H148.365V172.392Z" fill="white"/>
<path d="M74.8087 95.7664H78.7606V94.8785H75.8034V89H74.8087V95.7664Z" fill="white"/>
<path d="M80.7773 89H79.7825V95.7664H80.7773V89Z" fill="white"/>
<path d="M82.1067 95.7664H83.1015V93.3925H84.4399C85.9592 93.3925 86.7098 92.4439 86.7098 91.1963C86.7098 89.9439 85.9637 89 84.4399 89H82.1067V95.7664ZM83.1015 92.514V89.8785H84.3404C85.3035 89.8832 85.706 90.4299 85.706 91.1963C85.706 91.9579 85.3035 92.5187 84.3404 92.514H83.1015Z" fill="white"/>
<path d="M59.1862 98.5701H58.1914V105.336H59.1862V98.5701Z" fill="white"/>
<path d="M65.7969 98.5701H64.8202V103.523H64.7569L61.438 98.5701H60.5156V105.336H61.5103V100.393H61.5646L64.8835 105.336H65.7969V98.5701Z" fill="white"/>
<path d="M70.6984 100.355H71.6661C71.6344 99.2617 70.7075 98.4766 69.3781 98.4766C68.0532 98.4766 67.0494 99.2523 67.0449 100.421C67.0494 101.364 67.7006 101.916 68.7541 102.215L69.5318 102.43C70.2237 102.621 70.7663 102.86 70.7708 103.449C70.7663 104.112 70.1604 104.547 69.3238 104.551C68.5597 104.547 67.9266 104.196 67.8679 103.458H66.8731C66.9364 104.692 67.8588 105.449 69.3238 105.449C70.8703 105.449 71.752 104.612 71.7565 103.467C71.752 102.243 70.703 101.771 69.8664 101.561L69.2334 101.383C68.7134 101.257 68.0397 101.005 68.0397 100.364C68.0442 99.7897 68.5506 99.3645 69.351 99.3645C70.1016 99.3645 70.6351 99.7243 70.6984 100.355Z" fill="white"/>
<path d="M72.8236 105.336H76.9655V104.449H73.8184V102.383H76.7123V101.505H73.8184V99.4579H76.9293V98.5701H72.8236V105.336Z" fill="white"/>
<path d="M83.4316 98.5701H82.4549V103.523H82.3916L79.0726 98.5701H78.1502V105.336H79.145V100.393H79.1992L82.5182 105.336H83.4316V98.5701Z" fill="white"/>
<path d="M84.4444 99.4579H86.4882V105.336H87.483V99.4579H89.5178V98.5701H84.4444V99.4579Z" fill="white"/>
<path d="M91.5254 98.5701H90.5306V105.336H91.5254V98.5701Z" fill="white"/>
<path d="M93.4336 98.5701H92.3574L94.7087 105.336H95.8572L98.2175 98.5701H97.1414L95.3236 104.075H95.2513L93.4336 98.5701Z" fill="white"/>
<path d="M99.0495 105.336H103.191V104.449H100.044V102.383H102.938V101.505H100.044V99.4579H103.155V98.5701H99.0495V105.336Z" fill="white"/>
<path d="M69.1611 114.907H70.1558V112.533H71.4943C73.0136 112.533 73.7642 111.584 73.7642 110.336C73.7642 109.084 73.0181 108.14 71.4943 108.14H69.1611V114.907ZM70.1558 111.654V109.019H71.3948C72.3579 109.023 72.7603 109.57 72.7603 110.336C72.7603 111.098 72.3579 111.659 71.3948 111.654H70.1558Z" fill="white"/>
<path d="M80.5015 111.523C80.5015 109.36 79.2445 108.047 77.5533 108.047C75.8487 108.047 74.5961 109.36 74.5961 111.523C74.5961 113.682 75.8487 115 77.5533 115C79.2445 115 80.5015 113.687 80.5015 111.523ZM75.5819 111.523C75.5864 109.879 76.4229 108.986 77.5533 108.991C78.6747 108.986 79.5112 109.879 79.5158 111.523C79.5112 113.168 78.6747 114.061 77.5533 114.056C76.4229 114.061 75.5864 113.168 75.5819 111.523Z" fill="white"/>
<path d="M87.3112 111.523C87.3112 109.36 86.0541 108.047 84.363 108.047C82.6583 108.047 81.4058 109.36 81.4058 111.523C81.4058 113.682 82.6583 115 84.363 115C86.0541 115 87.3112 113.687 87.3112 111.523ZM82.3916 111.523C82.3961 109.879 83.2326 108.986 84.363 108.991C85.4844 108.986 86.3209 109.879 86.3255 111.523C86.3209 113.168 85.4844 114.061 84.363 114.056C83.2326 114.061 82.3961 113.168 82.3916 111.523Z" fill="white"/>
<path d="M88.4326 114.907H92.3845V114.019H89.4273V108.14H88.4326V114.907Z" fill="white"/>
<path d="M85.0971 42.4732H81.1914V46.3125H81.862C83.6381 46.317 84.6485 46.2946 85.8221 46.0982L85.7315 45.4196C84.6304 45.6027 83.6834 45.6339 82.0614 45.6339V44.7054H84.8706V44.0446H82.0614V43.1696H85.0971V42.4732ZM82.1248 49.9018H87.4623V47.1429H82.1248V49.9018ZM82.9766 49.2143V47.8036H86.6195V49.2143H82.9766ZM86.6014 46.7679H87.4623V42.0089H86.6014V46.7679Z" fill="white"/>
<path d="M90.9511 49.3304C91.5447 49.3304 92.1972 49.1384 92.6457 48.7277L93.0898 49.2411H94.1772L93.2393 48.1429C93.5247 47.7768 93.7875 47.2009 93.7875 46.3036H92.9176C92.9176 46.7366 92.8134 47.1205 92.6457 47.442L91.3317 45.8973L91.7848 45.5714C92.3286 45.183 92.6548 44.7321 92.6548 44.1161C92.6548 43.3571 92.034 42.7054 91.0236 42.7054C90.0223 42.7054 89.3698 43.3438 89.3653 44.2411C89.3698 44.817 89.6734 45.2723 90.0903 45.7723C89.3381 46.2768 88.8216 46.75 88.8216 47.5268C88.8216 48.5625 89.6326 49.3304 90.9511 49.3304ZM89.7912 47.5C89.7867 47.2946 89.9543 46.9018 90.4709 46.5268L90.634 46.4062L92.102 48.1027C91.7667 48.375 91.3589 48.5268 90.9602 48.5268C90.2488 48.5268 89.7867 48.0536 89.7912 47.5ZM90.2715 44.25C90.2715 43.8795 90.5887 43.5045 91.0418 43.5C91.4858 43.5 91.7758 43.8393 91.7758 44.1429C91.7758 44.5223 91.5628 44.7589 91.2049 44.9911L90.8062 45.2723C90.5071 44.9107 90.2715 44.5804 90.2715 44.25Z" fill="white"/>
<path d="M101.943 46.8036H94.5125V47.5H97.7929V50H98.6447V47.5H101.943V46.8036ZM95.4912 46.0625H101.119V45.3839H96.3339V44.5179H100.847V43.8571H96.3339V43.0357H101.028V42.3571H95.4912V46.0625Z" fill="white"/>
<path d="M105.369 44.3571V43.5089H107.136V42.8036H102.686V43.5089H104.517V44.3571C104.512 45.7098 103.62 47.2188 102.387 47.8036L102.895 48.4732C103.819 48.0179 104.58 47.0312 104.952 45.8929C105.319 46.9375 106.044 47.8393 106.955 48.2679L107.444 47.6071C106.211 47.0312 105.364 45.6205 105.369 44.3571ZM108.006 50H108.867V45.8839H110.172V45.1696H108.867V42H108.006V50Z" fill="white"/>
<path d="M113.389 44.3571V43.5089H115.156V42.8036H110.706V43.5089H112.537V44.3571C112.532 45.7098 111.64 47.2188 110.407 47.8036L110.915 48.4732C111.839 48.0179 112.6 47.0312 112.972 45.8929C113.339 46.9375 114.064 47.8393 114.974 48.2679L115.464 47.6071C114.231 47.0312 113.384 45.6205 113.389 44.3571ZM116.026 50H116.886V45.8839H118.191V45.1696H116.886V42H116.026V50Z" fill="white"/>
</g>
<defs>
<filter id="filter0_d_226_156" x="0" y="0" width="314.598" height="306.418" filterUnits="userSpaceOnUse" color-interpolation-filters="sRGB">
<feFlood flood-opacity="0" result="BackgroundImageFix"/>
<feColorMatrix in="SourceAlpha" type="matrix" values="0 0 0 0 0 0 0 0 0 0 0 0 0 0 0 0 0 0 127 0" result="hardAlpha"/>
<feOffset dy="4"/>
<feGaussianBlur stdDeviation="2"/>
<feComposite in2="hardAlpha" operator="out"/>
<feColorMatrix type="matrix" values="0 0 0 0 0 0 0 0 0 0 0 0 0 0 0 0 0 0 0.25 0"/>
<feBlend mode="normal" in2="BackgroundImageFix" result="effect1_dropShadow_226_156"/>
<feBlend mode="normal" in="SourceGraphic" in2="effect1_dropShadow_226_156" result="shape"/>
</filter>
<linearGradient id="paint0_linear_226_156" x1="189.69" y1="2.13188" x2="189.69" y2="209.925" gradientUnits="userSpaceOnUse">
<stop stop-color="#95CD9A"/>
<stop offset="0.53" stop-color="#88BFAA"/>
<stop offset="1" stop-color="#00A9AC"/>
</linearGradient>
</defs>
</svg>
